<svg xmlns="http://www.w3.org/2000/svg" viewBox="0 0 240 60" fill="none">
  <defs>
    <linearGradient id="logoGrad" x1="0" y1="0" x2="1" y2="1">
      <stop offset="0%" stop-color="#a5b4fc"/>
      <stop offset="50%" stop-color="#ec4899"/>
      <stop offset="100%" stop-color="#06b6d4"/>
    </linearGradient>
  </defs>
  <rect x="4" y="10" width="32" height="40" rx="4" fill="url(#logoGrad)" opacity="0.15"/>
  <rect x="8" y="12" width="24" height="36" rx="3" fill="url(#logoGrad)" opacity="0.25"/>
  <path d="M20 16 C22 20 24 18 24 22 L24 44 C24 44 20 40 20 36 C20 40 16 44 16 44 L16 22 C16 18 18 20 20 16Z" fill="url(#logoGrad)"/>
  <path d="M20 16 C18 20 16 18 16 22 L16 44 C16 44 20 40 20 36" fill="url(#logoGrad)" opacity="0.6"/>
  <text x="48" y="38" font-family="Outfit, 'Segoe UI', Arial, sans-serif" font-size="28" font-weight="800" fill="url(#logoGrad)" letter-spacing="-0.02">RUBRIC</text>
</svg>